# xmcd
#
# Track frame offsets: 
#        150
#        12760
#        38622
#        65055
#
# Disc length: 1090 seconds
#
# Revision: 0
# Processed by: cddbd v1.5.2PL0 Copyright (c) Steve Scherf et al.
# Submitted via: ExactAudioCopyFreeDBPlugin 1.0
#
DISCID=29044004
DTITLE=Hairy Diamond - Givin Up
DYEAR=2000
DGENRE=Dance
TTITLE0=Givin Up (Radio Edit)
TTITLE1=Givin Up (Scanty Sandwich Remix)
TTITLE2=Givin Up (Supakings Remix)
TTITLE3=Givin Up (Headcleaner vs Royal Appointment Remix)
EXTD=
EXTT0=
EXTT1=
EXTT2=
EXTT3=
PLAYORDER=
